# xmcd
#
# Track frame offsets:
#	150
#	8423
#	19728
#	35019
#	48501
#	60753
#	78295
#	86510
#	93924
#	104561
#
# Disc length: 1542 seconds
#
# Revision: 0
# Processed by: cddbd v1.5.2PL0 Copyright (c) Steve Scherf et al.
# Submitted via: dBpowerAMP V4.0
#
DISCID=6706040a
DTITLE=Johnny Cash - More Songs From Johnny's Personal File
DYEAR=2007
DGENRE=Country
TTITLE0=These Are My People
TTITLE1=House On The Hill
TTITLE2=Doesn't Anybody Know My Name
TTITLE3=I Never Got To Know Him Very Well
TTITLE4=Miller's Cave
TTITLE5=Who's Gene Autry
TTITLE6=I'm An Old Cow Hand
TTITLE7=I'm Ragged But I'm Right
TTITLE8=I'm Never Gonna Roam Again
TTITLE9=I'll Go Somewhere And Sing My Songs Again
EXTD=
EXTT0=
EXTT1=
EXTT2=
EXTT3=
EXTT4=
EXTT5=
EXTT6=
EXTT7=
EXTT8=
EXTT9=
PLAYORDER=
